<svg xmlns="http://www.w3.org/2000/svg" x="0px" y="0px"
width="30 " height="30"
viewBox="0 0 172 172"
style=" fill:#000000;">
<g fill="none" fill-rule="nonzero" stroke="none" 
stroke-width="1" stroke-linecap="butt" stroke-linejoin="miter" 
stroke-miterlimit="10" stroke-dasharray="" stroke-dashoffset="0" font-family="none" 
font-weight="none" font-size="none" text-anchor="none" style="mix-blend-mode: normal">
<path d="M0,172v-172h172v172z" fill="none"></path><g>
<path d="M146.2,72.24h-46.44v-46.44c0,-1.9006 -1.5394,-3.44 -3.44,-3.44h-20.64c-1.9006,0 -3.44,1.5394 -3.44,3.44v46.44h-46.44c-1.9006,0 -3.44,1.5394 -3.44,3.44v20.64c0,1.9006 1.5394,3.44 3.44,3.44h46.44v46.44c0,1.9006 1.5394,3.44 3.44,3.44h20.64c1.9006,0 3.44,-1.5394 3.44,-3.44v-46.44h46.44c1.9006,0 3.44,-1.5394 3.44,-3.44v-20.64c0,-1.9006 -1.5394,-3.44 -3.44,-3.44z" fill="#fff"></path><path d="M133.3,80.84h-17.2c-0.47472,0 -0.86,-0.38528 -0.86,-0.86c0,-0.47472 0.38528,-0.86 0.86,-0.86h17.2c0.47472,0 0.86,0.38528 0.86,0.86c0,0.47472 -0.38528,0.86 -0.86,0.86z" fill="#1f212b"></path>
<path d="M141.9,80.84h-3.44c-0.47472,0 -0.86,-0.38528 -0.86,-0.86c0,-0.47472 0.38528,-0.86 0.86,-0.86h3.44c0.47472,0 0.86,0.38528 0.86,0.86c0,0.47472 -0.38528,0.86 -0.86,0.86z" fill="#1f212b"></path><path d="M96.32,151.36h-20.64c-2.84488,0 -5.16,-2.31512 -5.16,-5.16v-44.72h-44.72c-2.84488,0 -5.16,-2.31512 -5.16,-5.16v-20.64c0,-2.84488 2.31512,-5.16 5.16,-5.16h44.72v-44.72c0,-2.84488 2.31512,-5.16 5.16,-5.16h20.64c2.84488,0 5.16,2.31512 5.16,5.16v44.72h44.72c2.84488,0 5.16,2.31512 5.16,5.16v20.64c0,2.84488 -2.31512,5.16 -5.16,5.16h-44.72v44.72c0,2.84488 -2.31512,5.16 -5.16,5.16zM25.8,73.96c-0.94772,0 -1.72,0.77228 -1.72,1.72v20.64c0,0.94772 0.77228,1.72 1.72,1.72h48.16v48.16c0,0.94772 0.77228,1.72 1.72,1.72h20.64c0.94772,0 1.72,-0.77228 1.72,-1.72v-48.16h48.16c0.94772,0 1.72,-0.77228 1.72,-1.72v-20.64c0,-0.94772 -0.77228,-1.72 -1.72,-1.72h-48.16v-48.16c0,-0.94772 -0.77228,-1.72 -1.72,-1.72h-20.64c-0.94772,0 -1.72,0.77228 -1.72,1.72v48.16z" fill="#1f212b"></path><path d="M110.94,80.84h-18.92c-0.47472,0 -0.86,-0.38528 -0.86,-0.86v-49.88c0,-0.47472 0.38528,-0.86 0.86,-0.86c0.47472,0 0.86,0.38528 0.86,0.86v49.02h18.06c0.47472,0 0.86,0.38528 0.86,0.86c0,0.47472 -0.38528,0.86 -0.86,0.86z"
 fill="#1f212b"></path></g></g></svg>